# xmcd CD database file
#
# Track frame offsets:
#	150
#	15298
#	27823
#	42027
#	58585
#	75923
#	92708
#	112128
#	124087
#	135027
#
# Disc length: 1965 seconds
#
# Revision: 0
# Processed by: cddbd v1.5.2PL0 Copyright (c) Steve Scherf et al.
# Submitted via: CDex 1.70beta2
#
DISCID=6807ab0a
DTITLE=Strayfolk - Strayfolk
DYEAR=2006
DGENRE=Country
TTITLE0=Promised Land
TTITLE1=Another year before the mast
TTITLE2=I'll be a-goin'
TTITLE3=I thought I had it down
TTITLE4=Somehow
TTITLE5=A place to call home
TTITLE6=T'was you
TTITLE7=Crickety crack
TTITLE8=Cut the ropes
TTITLE9=I'm a-comin' back
EXTD=YEAR: 2006
EXTT0=
EXTT1=
EXTT2=
EXTT3=
EXTT4=
EXTT5=
EXTT6=
EXTT7=
EXTT8=
EXTT9=
PLAYORDER=
